<?xml version="1.0" encoding="utf-8"?>
<!-- Generator: Adobe Illustrator 16.0.0, SVG Export Plug-In . SVG Version: 6.00 Build 0)  -->
<!DOCTYPE svg PUBLIC "-//W3C//DTD SVG 1.1//EN" "http://www.w3.org/Graphics/SVG/1.1/DTD/svg11.dtd">
<svg version="1.1" id="Layer_1" xmlns="http://www.w3.org/2000/svg" xmlns:xlink="http://www.w3.org/1999/xlink" x="0px" y="0px"
	 width="580px" height="95.105px" viewBox="-240 0 580 95.105" enable-background="new -240 0 580 95.105" xml:space="preserve">
<path fill="#CCCCCC" d="M-159.1,95.106L-190,72.654l-30.901,22.452l11.803-36.327L-240,36.327h38.196L-190,0l11.805,36.327H-140
	l-30.9,22.451L-159.1,95.106L-159.1,95.106z M-190,67.706l23.286,16.918l-8.894-27.374l23.285-16.919h-28.783L-190,12.956
	l-8.895,27.375h-28.783l23.286,16.919l-8.895,27.374L-190,67.706L-190,67.706z"/>
<path fill="#CCCCCC" d="M-39.1,95.106L-70,72.654l-30.901,22.452l11.803-36.327L-120,36.327h38.196L-70,0l11.805,36.327H-20
	l-30.9,22.451L-39.1,95.106L-39.1,95.106z M-70,67.706l23.286,16.918l-8.894-27.374l23.285-16.919h-28.783L-70,12.956l-8.895,27.375
	h-28.783l23.286,16.919l-8.895,27.374L-70,67.706L-70,67.706z"/>
<path fill="#CCCCCC" d="M80.9,95.106L50,72.654L19.099,95.106l11.803-36.327L0,36.327h38.196L50,0l11.805,36.327H100L69.1,58.779
	L80.9,95.106L80.9,95.106z M50,67.706l23.286,16.918L64.393,57.25l23.285-16.919H58.895L50,12.956l-8.895,27.375H12.322
	L35.608,57.25l-8.895,27.374L50,67.706L50,67.706z"/>
<path fill="#CCCCCC" d="M200.9,95.106L170,72.654l-30.9,22.452l11.803-36.327L120,36.327h38.195L170,0l11.805,36.327H220
	l-30.9,22.451L200.9,95.106L200.9,95.106z M170,67.706l23.286,16.918l-8.894-27.374l23.285-16.919h-28.783L170,12.956l-8.895,27.375
	h-28.783l23.285,16.919l-8.895,27.374L170,67.706L170,67.706z"/>
<path fill="#CCCCCC" d="M320.9,95.106L290,72.654l-30.9,22.452l11.803-36.327L240,36.327h38.195L290,0l11.805,36.327H340
	l-30.9,22.451L320.9,95.106L320.9,95.106z M290,67.706l23.286,16.918l-8.894-27.374l23.285-16.919h-28.783L290,12.956l-8.895,27.375
	h-28.783l23.285,16.919l-8.895,27.374L290,67.706L290,67.706z"/>
</svg>
