<?xml version="1.0" encoding="utf-8"?>
<!-- Generator: Adobe Illustrator 16.0.0, SVG Export Plug-In . SVG Version: 6.00 Build 0)  -->
<!DOCTYPE svg PUBLIC "-//W3C//DTD SVG 1.1//EN" "http://www.w3.org/Graphics/SVG/1.1/DTD/svg11.dtd">
<svg version="1.1" id="Layer_1" xmlns="http://www.w3.org/2000/svg" xmlns:xlink="http://www.w3.org/1999/xlink" x="0px" y="0px"
	 width="580px" height="95.105px" viewBox="-240 0 580 95.105" enable-background="new -240 0 580 95.105" xml:space="preserve">
<polygon fill="#FF9C01" points="-190,0 -178.197,36.327 -140,36.327 -170.902,58.778 -159.098,95.105 -190,72.654 -220.902,95.105 
	-209.098,58.778 -240,36.327 -201.803,36.327 "/>
<polygon fill="#FF9C01" points="-70,0 -58.197,36.327 -20,36.327 -50.902,58.778 -39.098,95.105 -70,72.654 -100.902,95.105 
	-89.098,58.778 -120,36.327 -81.803,36.327 "/>
<polygon fill="#FF9C01" points="50,0 61.803,36.327 100,36.327 69.098,58.778 80.902,95.105 50,72.654 19.098,95.105 30.902,58.778 
	0,36.327 38.197,36.327 "/>
<polygon fill="#FF9C01" points="170,0 181.803,36.327 220,36.327 189.098,58.778 200.902,95.105 170,72.654 139.098,95.105 
	150.902,58.778 120,36.327 158.197,36.327 "/>
<polygon fill="#FF9C01" points="290,0 301.803,36.327 340,36.327 309.098,58.778 320.902,95.105 290,72.654 259.098,95.105 
	270.902,58.778 240,36.327 278.197,36.327 "/>
</svg>
