<?xml version="1.0" encoding="utf-8"?>
<!-- Generator: Adobe Illustrator 16.0.0, SVG Export Plug-In . SVG Version: 6.00 Build 0)  -->
<!DOCTYPE svg PUBLIC "-//W3C//DTD SVG 1.1//EN" "http://www.w3.org/Graphics/SVG/1.1/DTD/svg11.dtd">
<svg version="1.1" id="Layer_1" xmlns="http://www.w3.org/2000/svg" xmlns:xlink="http://www.w3.org/1999/xlink" x="0px" y="0px"
	 width="76.1px" height="100px" viewBox="0 0 76.1 100" enable-background="new 0 0 76.1 100" xml:space="preserve">
<g id="Your_Icon">
	<g>
		<path fill="#5A9AA8" d="M72.501,64.865c-2.589-2.307-5.567-4.338-8.929-6.021c-1.694-0.85-2.195-1.688-2.01-3.16
			c1.117-8.796,1.176-17.583-1.222-26.304c-2.966-10.8-9.554-20.312-20.385-29.145c-1.02-0.805-2.88-0.917-4.388,0.305
			c-4.874,3.951-9.039,8.254-12.42,12.946c-6.002,8.335-8.926,17.25-9.673,26.572c-0.48,5.974-0.066,11.931,0.678,17.881
			c0.04,0.307-0.156,0.74-0.464,0.941c-2.84,1.846-5.836,3.564-8.57,5.483c-3.334,2.339-5.019,5.254-5.11,8.635
			c-0.069,2.556,0.318,5.069,1.11,7.552c1.955,6.131,5.269,11.903,9.013,17.559c0.279,0.421,0.713,0.853,1.236,1.108
			c1.638,0.812,3.434,0.38,4.443-1.044c2.601-3.675,5.179-7.355,7.74-11.039c0.324-0.469,0.696-0.65,1.456-0.65
			c3.361,0.01,6.723-0.004,10.083-0.002v10.084c0,1.688,1.369,3.059,3.06,3.059c1.688,0,3.059-1.369,3.059-3.059V86.48
			c3.476-0.002,6.953,0.01,10.427,0c0.764-0.004,1.116,0.19,1.443,0.662c2.346,3.371,4.719,6.734,7.129,10.082
			c0.349,0.484,0.832,1.008,1.449,1.284c1.73,0.784,3.492,0.294,4.414-1.237c2.036-3.391,4.146-6.76,5.932-10.215
			c2.122-4.104,3.742-8.322,4.053-12.734C76.295,70.896,75.626,67.648,72.501,64.865z M18.915,84.34
			c-1.867,2.723-3.78,5.432-5.809,8.331C9.794,86.999,6.73,81.473,5.996,75.46c-0.268-2.18-0.297-4.379,1.401-6.358
			c1.364-1.596,5.168-4.351,7.593-5.468c0.297,1.439,0.591,2.843,0.877,4.244c1.054,5.179,2.111,10.356,3.147,15.535
			C19.075,83.713,19.094,84.078,18.915,84.34z M53.331,70.58c-0.695,3.773-1.37,7.548-2.059,11.32
			c-0.02,0.106-0.056,0.213-0.097,0.357c-3.317,0.002-6.643,0.006-9.968,0.006V61.093c0-1.688-1.369-3.059-3.058-3.059
			c-1.689,0-3.06,1.368-3.06,3.059V82.27c-3.427,0.002-6.854,0.004-10.312,0.006c-0.634-3.082-1.317-6.059-1.848-9.049
			c-1.172-6.638-2.54-13.263-3.327-19.922c-1.104-9.357-0.537-18.67,3.176-27.772c2.791-6.851,7.188-13.108,13.292-18.745
			c0.553-0.511,1.09-1.028,1.639-1.542c0.042-0.039,0.12-0.058,0.312-0.146c0.975,0.892,2.006,1.771,2.94,2.699
			c5.052,5.012,8.938,10.45,11.483,16.37c2.634,6.134,3.771,12.427,3.938,18.828C56.627,52.261,55.016,61.423,53.331,70.58z
			 M70.154,74.18c-0.29,4.108-1.966,7.998-3.862,11.842c-0.949,1.92-2.062,3.803-3.23,5.938c-2.083-2.975-4.009-5.698-5.903-8.438
			c-0.136-0.196-0.146-0.47-0.103-0.694c1.289-6.46,2.592-12.918,3.895-19.376c0.037-0.178,0.117-0.354,0.215-0.641
			c2.98,1.771,5.825,3.51,7.755,5.859C70.321,70.376,70.288,72.286,70.154,74.18z"/>
		<path fill="#5A9AA8" d="M38.194,27.391c-2.415,0.001-4.767,0.926-6.621,2.607c-1.799,1.63-2.896,4.051-3.01,6.641
			c-0.116,2.628,0.787,5.183,2.475,7.01c1.918,2.075,4.456,3.217,7.138,3.217c2.427,0,4.791-0.958,6.659-2.696
			c3.814-3.549,4.035-9.785,0.48-13.616C43.422,28.514,40.892,27.391,38.194,27.391z M35.261,33.917
			c0.805-0.733,1.838-1.137,2.908-1.137c1.209,0,2.337,0.495,3.176,1.399c1.577,1.691,1.468,4.482-0.237,6.093
			c-0.827,0.781-1.869,1.21-2.938,1.21c-1.149,0-2.247-0.491-3.086-1.382c-0.771-0.819-1.188-1.983-1.143-3.192
			C33.984,35.732,34.466,34.641,35.261,33.917z"/>
	</g>
</g>
</svg>
